<?xml version="1.0"?>
<svg xmlns="http://www.w3.org/2000/svg" xmlns:xlink="http://www.w3.org/1999/xlink" version="1.1" viewBox="0 0 172 172" width="480px" height="480px"><g fill="none" fill-rule="nonzero" stroke="none" stroke-width="1" stroke-linecap="butt" stroke-linejoin="miter" stroke-miterlimit="10" stroke-dasharray="" stroke-dashoffset="0" font-family="none" font-weight="none" font-size="none" text-anchor="none" style="mix-blend-mode: normal"><path d="M0,172v-172h172v172z" fill="none"/><g fill="#1abc9c"><path d="M61.23021,23.97474c-3.50307,0 -6.75208,0.78421 -9.63021,2.44115c-8.99486,5.1932 -12.4186,17.84858 -10.60443,33.60495c-14.54942,6.30714 -23.79557,15.59419 -23.79557,25.97917c0,10.38498 9.24615,19.67202 23.79557,25.97917c-1.81324,15.75575 1.60957,28.41175 10.60443,33.60495c2.8724,1.65693 6.12141,2.44114 9.63021,2.44114c7.46839,0 16.10013,-3.74828 24.76979,-10.1789c8.67042,6.43062 17.3126,10.1789 24.78099,10.1789c3.50307,0 6.75207,-0.78421 9.63021,-2.44114c8.9948,-5.19317 12.41853,-17.8487 10.60442,-33.60495c14.54395,-6.30708 23.78438,-15.59644 23.78438,-25.97917c0,-10.38498 -9.24615,-19.67202 -23.79558,-25.97917c1.81324,-15.75575 -1.60957,-28.41175 -10.60442,-33.60495c-2.8724,-1.66267 -6.12141,-2.44115 -9.63021,-2.44115c-7.46839,0 -16.10013,3.74828 -24.76979,10.17891c-8.67016,-6.43062 -17.30399,-10.17891 -24.76979,-10.17891zM61.23021,34.00807c4.48136,0 10.40756,2.38282 16.84167,6.79714c-3.78296,3.57006 -7.48793,7.6296 -11.05235,12.14974c-5.78134,0.82897 -11.23221,2.03741 -16.28177,3.54974c-0.02712,-0.35018 -0.09134,-0.71763 -0.11198,-1.0638c-0.61347,-10.20533 1.62782,-17.81275 5.99089,-20.33542c1.29,-0.74533 2.79608,-1.0974 4.61354,-1.0974zM110.76979,34.00807c1.81173,0 3.32354,0.35206 4.61354,1.0974c4.36307,2.51693 6.60435,10.13008 5.99089,20.33542c-0.02079,0.34617 -0.08472,0.71362 -0.11198,1.0638c-5.05274,-1.51328 -10.50761,-2.72071 -16.29297,-3.54974c-3.56437,-4.51951 -7.25827,-8.5801 -11.04115,-12.14974c6.43366,-4.41358 12.36262,-6.79714 16.84167,-6.79714zM86,47.17682c1.55419,1.41461 3.09753,2.90978 4.65833,4.54635c-1.54675,-0.05196 -3.08526,-0.12318 -4.65833,-0.12318c-1.56929,0 -3.10404,0.07147 -4.64714,0.12318c1.55943,-1.63488 3.0944,-3.13308 4.64714,-4.54635zM86,61.63333c4.75114,0 9.25433,0.26557 13.52708,0.72786c2.60572,3.54173 5.17375,7.28625 7.58099,11.45547c2.30728,3.99632 4.34757,8.0868 6.14765,12.18333c-1.80032,4.099 -3.83898,8.19581 -6.14765,12.19453c-2.39976,4.15719 -4.96141,7.87758 -7.5586,11.41068c-4.42367,0.484 -8.96156,0.76146 -13.54948,0.76146c-4.75114,0 -9.25433,-0.26557 -13.52708,-0.72786c-2.60572,-3.54173 -5.17375,-7.27506 -7.58099,-11.44427c-2.30867,-3.99872 -4.34681,-8.09553 -6.14765,-12.19453c1.79957,-4.09654 3.84037,-8.18701 6.14765,-12.18333c2.40068,-4.15719 4.96078,-7.88877 7.5586,-11.42188c4.42367,-0.484 8.96156,-0.76146 13.54948,-0.76146zM113.21094,64.73516c2.27468,0.54918 4.46144,1.14204 6.51718,1.80286c-0.46574,2.10443 -1.03531,4.2492 -1.67968,6.4164c-0.73777,-1.38442 -1.45322,-2.77325 -2.25078,-4.15442c-0.82059,-1.42074 -1.73159,-2.6972 -2.58672,-4.06484zM58.77786,64.74636c-0.85225,1.36343 -1.75756,2.63746 -2.57552,4.05364c-0.79732,1.38141 -1.51324,2.76981 -2.25078,4.15442c-0.64584,-2.17167 -1.22468,-4.319 -1.69088,-6.4276c2.09344,-0.66143 4.27475,-1.24717 6.51719,-1.78047zM42.82083,70.21094c1.20799,5.10049 2.88375,10.38779 5.03906,15.77786c-2.15074,5.37727 -3.81945,10.65486 -5.02786,15.74427c-9.98443,-4.82138 -15.5987,-10.8232 -15.5987,-15.73308c0,-5.0396 5.45742,-10.78287 14.60208,-15.35234c0.31213,-0.15615 0.66649,-0.28422 0.98542,-0.43672zM129.16797,70.26692c9.98443,4.82138 15.5987,10.8232 15.5987,15.73308c0,5.0396 -5.45742,10.78287 -14.60208,15.35234c-0.31213,0.15615 -0.66649,0.28422 -0.98542,0.43672c-1.2087,-5.10348 -2.87073,-10.39572 -5.02786,-15.78906c2.14817,-5.37263 3.80926,-10.64792 5.01667,-15.73308zM86,74.53333c-6.33533,0 -11.46667,5.13133 -11.46667,11.46667c0,6.33533 5.13133,11.46667 11.46667,11.46667c6.33533,0 11.46667,-5.13133 11.46667,-11.46667c0,-6.33533 -5.13133,-11.46667 -11.46667,-11.46667zM53.95156,99.04558c0.73801,1.38493 1.46412,2.77274 2.26198,4.15442c0.8197,1.41972 1.7213,2.69815 2.57552,4.06484c-2.27468,-0.54918 -4.46145,-1.14204 -6.51719,-1.80286c0.46608,-2.10574 1.03475,-4.24782 1.67969,-6.4164zM118.04844,99.05677c0.64511,2.16958 1.22506,4.30978 1.69089,6.4164c-2.09345,0.66143 -4.27475,1.24717 -6.51719,1.78047c0.85225,-1.36343 1.75756,-2.63746 2.57552,-4.05364c0.79566,-1.37854 1.51465,-2.76149 2.25078,-4.14323zM50.73776,115.49531c5.05274,1.51328 10.5076,2.72071 16.29297,3.54974c3.56546,4.52173 7.25656,8.59004 11.04115,12.16094c-6.43364,4.41303 -12.36059,6.79713 -16.84167,6.79713c-1.81174,0 -3.32354,-0.36326 -4.61354,-1.10859c-4.36307,-2.51693 -6.60435,-10.11889 -5.99089,-20.32422c0.02101,-0.34978 0.08437,-0.72113 0.11198,-1.075zM121.26224,115.49531c0.02747,0.35387 0.09113,0.72522 0.11198,1.075c0.61347,10.20533 -1.62782,17.80155 -5.99089,20.32422c-1.29,0.74533 -2.79608,1.1086 -4.61354,1.10859c-4.48108,0 -10.40803,-2.38336 -16.84167,-6.79713c3.78487,-3.57131 7.48619,-7.63859 11.05235,-12.16094c5.78134,-0.82898 11.23221,-2.03741 16.28177,-3.54974zM81.34167,120.27683c1.54675,0.05196 3.08526,0.12317 4.65833,0.12317c1.57307,0 3.11158,-0.07122 4.65833,-0.12317c-1.56081,1.63657 -3.10414,3.13183 -4.65833,4.54635c-1.55419,-1.41461 -3.09753,-2.90977 -4.65833,-4.54635z"/></g></g></svg>
